<svg xmlns="http://www.w3.org/2000/svg" width="28" height="29" fill="none" aria-label="Cube icon" viewBox="0 0 28 29">
  <path fill="#FF6492" d="M26.18 8.038L14.027 1v4.87l12.153 7.007v-4.84z"></path>
  <path fill="#0F0F23" d="M26.18 12.877L22.534 15l-8.509-4.919-4.862 2.8-3.647-1.967 8.511-5.044 12.153 7.007z"></path>
  <path fill="#A14474" d="M9.163 12.881l-3.647-1.967V15l3.647-2.119z"></path>
  <path fill="#0F0F23" d="M1.87 21.962L14.025 15l12.155 6.962L14.025 29 1.87 21.962z"></path>
  <path fill="#FF6492" d="M26.18 17.13l-12.155-7.125V15l12.155 6.962V17.13z"></path>
  <path fill="#7A77FF" d="M5.516 15v-4.086l8.511-5.044V1L1.87 8.038v13.924L14.025 15v-4.995L5.516 15z"></path>
</svg>