<svg xmlns="http://www.w3.org/2000/svg" width="99" height="29" fill="none" aria-label="Cube Dev logo">
  <path fill="#FF6492" d="M26.18 8.038L14.027 1v4.87l12.153 7.007v-4.84z"></path>
  <path fill="#0F0F23" d="M26.18 12.877L22.534 15l-8.509-4.919-4.862 2.8-3.647-1.967 8.511-5.044 12.153 7.007z"></path>
  <path fill="#A14474" d="M9.163 12.881l-3.647-1.967V15l3.647-2.119z"></path>
  <path fill="#0F0F23" d="M1.87 21.962L14.025 15l12.155 6.962L14.025 29 1.87 21.962z"></path>
  <path fill="#FF6492" d="M26.18 17.13l-12.155-7.125V15l12.155 6.962V17.13z"></path>
  <path fill="#7A77FF" d="M5.516 15v-4.086l8.511-5.044V1L1.87 8.038v13.924L14.025 15v-4.995L5.516 15z"></path>
  <path fill="#0F0F23" d="M33.72 15.628c0-4.21 3.345-7.485 7.56-7.485 2.704 0 4.797 1.316 6.019 3.332l-2.151 1.696c-.931-1.316-2.123-2.193-3.838-2.193-2.617 0-4.477 2.047-4.477 4.648 0 2.66 1.86 4.676 4.477 4.676 1.687 0 2.878-.846 3.838-2.162l2.15 1.667c-1.25 2.016-3.344 3.332-6.018 3.332-4.215.002-7.56-3.273-7.56-7.511zm16.225 1.17V8.466h3.023v8.565c0 2.016 1.424 3.273 3.228 3.273 1.745 0 3.14-1.257 3.14-3.273V8.466h3.054v8.332c0 3.888-2.704 6.343-6.192 6.343-3.549 0-6.253-2.455-6.253-6.343zm30.968-1.142c0 4.268-2.936 7.485-6.978 7.485-2.094 0-3.926-.847-5-2.309v1.988h-2.85V.894h3.053v9.326c1.077-1.315 2.792-2.075 4.769-2.075 4.07-.002 7.007 3.243 7.007 7.511zm-3.14-.028c0-2.778-1.919-4.677-4.363-4.677-2.15 0-4.304 1.462-4.304 4.707 0 3.274 2.181 4.677 4.304 4.677 2.472 0 4.363-1.93 4.363-4.707zm18.929 1.023H86.06c.408 2.368 2.21 3.771 4.651 3.771 1.659 0 2.965-.644 4.159-1.695l1.454 2.105c-1.513 1.432-3.431 2.309-5.7 2.309-4.419 0-7.677-3.245-7.677-7.485 0-4.209 3.228-7.513 7.387-7.513 3.809 0 6.6 2.806 6.6 6.577a9.13 9.13 0 01-.232 1.931zm-10.584-2.398h7.764c-.058-2.252-1.714-3.508-3.663-3.508-2.008.002-3.636 1.374-4.1 3.508z"></path>
</svg>